<svg width="36" height="50" viewBox="0 0 36 50" fill="none" xmlns="http://www.w3.org/2000/svg">
<g clip-path="url(#clip0_892_959)">
<rect width="36" height="50" fill="white"/>
<path fill-rule="evenodd" clip-rule="evenodd" d="M36 17.5761L35.9998 17.6717C35.9996 17.712 35.9991 17.7523 35.9986 17.7925C35.9995 17.8396 36 17.887 36 17.9347C36 25.4414 30.1516 32.0859 26.2381 36.5326C25.1026 37.8227 24.1299 38.9279 23.5102 39.8153C21.3061 42.9718 20.1429 46.3914 19.8367 47.7065C19.8367 48.697 19.0145 49.5 18 49.5C16.9855 49.5 16.1633 48.697 16.1633 47.7065C15.8571 46.3914 14.6938 42.9718 12.4897 39.8153C11.8701 38.9279 10.8974 37.8227 9.76185 36.5326C5.84843 32.0859 0 25.4414 0 17.9347C0 17.887 0.000449688 17.8396 0.00134969 17.7925C0.000449688 17.7205 0 17.6483 0 17.5761C0 7.86906 8.05882 0 18 0C27.9412 0 36 7.86906 36 17.5761ZM18 24.0327C21.8547 24.0327 24.9795 20.9812 24.9795 17.2174C24.9795 13.4534 21.8547 10.4022 18 10.4022C14.1453 10.4022 11.0205 13.4534 11.0205 17.2174C11.0205 20.9812 14.1453 24.0327 18 24.0327Z" fill="#34A851"/>
<path d="M33.9875 9.49201C31.7834 5.34504 27.9366 2.16423 23.2888 0.771484L12.9512 12.5136C14.2222 11.2132 16.0145 10.403 18.0008 10.403C21.8555 10.403 24.9803 13.4544 24.9803 17.2182C24.9803 18.7538 24.4604 20.1706 23.5829 21.3102L33.9875 9.49201Z" fill="#4285F5"/>
<path d="M9.97023 36.7713C9.90115 36.6927 9.83163 36.6138 9.76143 36.5341C7.1818 33.603 3.7614 29.7171 1.72949 25.2585L12.474 13.0547C11.5623 14.2062 11.0199 15.6507 11.0199 17.219C11.0199 20.9828 14.1449 24.0342 17.9996 24.0342C19.9521 24.0342 21.7175 23.2512 22.9842 21.9892L9.97023 36.7713Z" fill="#F9BB0E"/>
<path d="M4.25898 6.22266C1.60216 9.28542 0 13.2482 0 17.5763C0 17.6486 0.000449688 17.7208 0.00134969 17.7928C0.000449688 17.8398 0 17.8873 0 17.935C0 20.4935 0.679411 22.952 1.73 25.2572L12.4564 13.0739L4.25898 6.22266Z" fill="#E74335"/>
<path d="M23.2868 0.770715C21.6148 0.26973 19.8391 0 17.9988 0C12.4902 0 7.55951 2.41621 4.25781 6.22244L12.4553 13.0736L12.4731 13.0534C12.6222 12.8651 12.7811 12.6844 12.9492 12.5125L23.2868 0.770715Z" fill="#1A73E6"/>
</g>
<defs>
<clipPath id="clip0_892_959">
<rect width="36" height="50" fill="white"/>
</clipPath>
</defs>
</svg>
