<svg width="45" height="50" viewBox="0 0 45 50" fill="none" xmlns="http://www.w3.org/2000/svg">
<path d="M36.2087 9.66035C38.1002 11.6108 40.4591 12.7995 42.8365 13.3404V11.8757C40.6027 11.7175 38.2659 11.0146 36.2087 9.66035ZM22.5443 0V32.753C22.5443 37.044 19.4604 39.8041 15.7104 39.8041C14.4665 39.8041 13.2853 39.5134 12.2585 38.976C13.5612 40.6395 15.6185 41.5963 17.8743 41.5963C21.6244 41.5963 24.7084 38.8363 24.7084 34.5415V1.7885H30.6517C30.4898 1.21814 30.3572 0.621904 30.2542 0H22.5443ZM17.6683 19.0409V17.4179C16.9175 17.2929 16.1668 17.2523 15.5449 17.2523C7.0842 17.2523 0 24.0421 0 32.4623C0 37.9898 2.69017 42.7151 6.77876 45.5119C3.93036 42.6857 2.16393 38.7296 2.16393 34.2509C2.16393 25.8454 9.22607 19.0593 17.6683 19.0409Z" fill="#2DCCD3"/>
<path d="M31.126 32.2106C31.126 42.6695 23.1255 48.2117 15.5848 48.2117C12.3206 48.2117 9.28819 47.2255 6.77832 45.5105C9.59734 48.3074 13.4763 50.0003 17.7488 50.0003C25.2893 50.0003 33.2898 44.4581 33.2898 33.9992V16.9566C32.5392 16.4487 31.8178 15.8562 31.126 15.1643V32.2106ZM12.2581 38.9747C11.338 37.8118 10.7897 36.3065 10.7897 34.5401C10.7897 29.583 14.6648 26.9629 19.8317 27.5074V19.2051C19.081 19.08 18.3303 19.0395 17.7046 19.0395H17.6678V25.7152C12.501 25.1743 8.62578 27.7908 8.62578 32.7516C8.62578 35.6514 10.1088 37.8522 12.2581 38.9747ZM42.8361 13.339V19.54C39.4026 19.54 36.153 18.8849 33.2898 16.9566C36.624 20.2908 40.6685 21.3322 45 21.3322V13.6629C44.2711 13.6139 43.5474 13.5056 42.8361 13.339ZM36.2082 9.65887C34.3792 7.77832 32.9844 5.18752 32.4176 1.78711H30.6513C31.6596 5.46358 33.7351 8.0286 36.2082 9.65887Z" fill="#F1204A"/>
<path d="M15.5854 48.2116C23.126 48.2116 31.1266 42.6694 31.1266 32.2105V15.1643C31.8185 15.8561 32.5397 16.4487 33.2905 16.9565C36.1535 18.8848 39.4031 19.5399 42.8366 19.5399V13.3389C40.4593 12.798 38.1004 11.6092 36.2088 9.65887C33.7357 8.0285 31.6602 5.46348 30.6518 1.78711H24.7084V34.5401C24.7084 38.8348 21.6245 41.5948 17.8745 41.5948C15.6185 41.5948 13.5614 40.6381 12.2586 38.9746C10.1094 37.8522 8.62636 35.6514 8.62636 32.7516C8.62636 27.7907 12.5015 25.1742 17.6684 25.7151V19.0395C9.2262 19.0579 2.16406 25.844 2.16406 34.2493C2.16406 38.7281 3.9305 42.6841 6.779 45.5104C9.28877 47.2254 12.3212 48.2116 15.5854 48.2116Z" fill="black"/>
</svg>
